<svg width="27" height="26" viewBox="0 0 27 26" fill="none" xmlns="http://www.w3.org/2000/svg">
<path d="M7.86048 0.968563C10.187 0.00537744 12.7469 -0.24645 15.2167 0.244573C17.6867 0.73566 19.956 1.94725 21.7367 3.72717L17.2348 8.22706C16.3445 7.33717 15.21 6.73135 13.9751 6.48578C12.7402 6.24023 11.4598 6.36646 10.2964 6.84806C9.13319 7.32972 8.13901 8.14516 7.43953 9.1916C6.73998 10.238 6.36652 11.4684 6.36646 12.727C6.36652 13.9856 6.73998 15.2159 7.43953 16.2624C8.13907 17.3089 9.13313 18.1249 10.2964 18.6065C11.4598 19.0882 12.7402 19.2138 13.9751 18.9682C15.21 18.7226 16.3445 18.1168 17.2348 17.2269L21.7367 21.7268C19.956 23.5067 17.6867 24.7189 15.2167 25.21C12.7469 25.701 10.187 25.4486 7.86048 24.4854C5.53389 23.5221 3.5453 21.8908 2.14619 19.7979C0.747091 17.7049 -4.50768e-05 15.2442 2.03977e-09 12.727C-4.17154e-05 10.2098 0.747091 7.74915 2.14619 5.65615C3.54529 3.56322 5.5339 1.93185 7.86048 0.968563ZM26.238 8.22706C25.6469 8.81792 25.1783 9.51958 24.8584 10.2916C24.5385 11.0636 24.3735 11.8913 24.3735 12.727C24.3735 13.5627 24.5385 14.3904 24.8584 15.1625C25.1783 15.9344 25.6469 16.636 26.238 17.2269L21.7367 21.7268C20.5544 20.545 19.6161 19.1415 18.9762 17.5973C18.3364 16.0532 18.007 14.3983 18.007 12.727C18.007 11.0557 18.3364 9.40077 18.9762 7.8567C19.6161 6.31255 20.5544 4.90901 21.7367 3.72717L26.238 8.22706Z" fill="white"/>
</svg>
