<svg width="10" height="10" viewBox="0 0 10 10" fill="none" xmlns="http://www.w3.org/2000/svg">
<path d="M9.73304 4.91782C9.73304 5.096 9.71521 5.36327 9.69739 5.57709H2.22826C2.49565 6.96691 3.65434 7.85782 5.31217 7.85782C6.38174 7.85782 7.21958 7.51927 7.89697 6.82436L9.0913 8.19636C8.23565 9.212 6.8987 9.74654 5.2587 9.74654C2.06783 9.74654 0 7.69745 0 4.86436C0 2.03127 2.08565 0 4.92 0C7.70087 0 9.73304 1.94218 9.73304 4.91782ZM4.92 1.78182C3.47608 1.78182 2.42436 2.70836 2.21044 4.09818H7.61175C7.43349 2.72618 6.38174 1.78182 4.92 1.78182Z" fill="white"/>
</svg>
