<svg width="11" height="14" viewBox="0 0 11 14" fill="none" xmlns="http://www.w3.org/2000/svg">
<path d="M8.11086 0.106909H10.2322V8.17854C10.2322 11.6353 8.43174 13.2033 5.09826 13.2033C3.31565 13.2033 1.55087 12.74 0.463476 11.8491L1.46173 10.1742C2.29956 10.8691 3.65435 11.3145 4.97348 11.3145C7.07695 11.3145 8.00391 10.3524 8.00391 8.428V7.92909C7.21956 8.78436 6.09652 9.19418 4.81304 9.19418C2.08565 9.19418 0 7.34109 0 4.57927C0 1.81745 2.08565 0 4.81304 0C6.15 0 7.32652 0.427636 8.11086 1.372V0.106909ZM5.15174 7.30545C6.82739 7.30545 8.03956 6.20073 8.03956 4.57927C8.03956 2.97564 6.82739 1.88873 5.15174 1.88873C3.45826 1.88873 2.24609 2.97564 2.24609 4.57927C2.24609 6.20073 3.45826 7.30545 5.15174 7.30545Z" fill="white"/>
</svg>
