<svg width="24" height="24" viewBox="0 0 24 24" fill="none" xmlns="http://www.w3.org/2000/svg">
<path d="M20.0306 11.4694C20.1004 11.539 20.1557 11.6217 20.1934 11.7128C20.2312 11.8038 20.2506 11.9014 20.2506 12C20.2506 12.0986 20.2312 12.1961 20.1934 12.2872C20.1557 12.3782 20.1004 12.461 20.0306 12.5306L12.5306 20.0306C12.461 20.1003 12.3783 20.1557 12.2872 20.1934C12.1962 20.2312 12.0986 20.2506 12 20.2506C11.9014 20.2506 11.8038 20.2312 11.7128 20.1934C11.6218 20.1557 11.539 20.1003 11.4694 20.0306L3.96938 12.5306C3.82865 12.3899 3.74959 12.199 3.74959 12C3.74959 11.801 3.82865 11.6101 3.96938 11.4694C4.11011 11.3286 4.30098 11.2496 4.50001 11.2496C4.69903 11.2496 4.8899 11.3286 5.03063 11.4694L12 18.4397L18.9694 11.4694C19.039 11.3996 19.1218 11.3443 19.2128 11.3066C19.3038 11.2688 19.4014 11.2494 19.5 11.2494C19.5986 11.2494 19.6962 11.2688 19.7872 11.3066C19.8783 11.3443 19.961 11.3996 20.0306 11.4694ZM11.4694 12.5306C11.539 12.6003 11.6218 12.6557 11.7128 12.6934C11.8038 12.7312 11.9014 12.7506 12 12.7506C12.0986 12.7506 12.1962 12.7312 12.2872 12.6934C12.3783 12.6557 12.461 12.6003 12.5306 12.5306L20.0306 5.03061C20.1714 4.88988 20.2504 4.69901 20.2504 4.49999C20.2504 4.30097 20.1714 4.1101 20.0306 3.96936C19.8899 3.82863 19.699 3.74957 19.5 3.74957C19.301 3.74957 19.1101 3.82863 18.9694 3.96936L12 10.9397L5.03063 3.96936C4.8899 3.82863 4.69903 3.74957 4.50001 3.74957C4.30098 3.74957 4.11011 3.82863 3.96938 3.96936C3.82865 4.1101 3.74959 4.30097 3.74959 4.49999C3.74959 4.69901 3.82865 4.88988 3.96938 5.03061L11.4694 12.5306Z" fill="white"/>
</svg>
