<svg width="24" height="24" viewBox="0 0 24 24" fill="none" xmlns="http://www.w3.org/2000/svg">
<path d="M16.875 19.5C16.875 19.7984 16.7565 20.0845 16.5455 20.2955C16.3345 20.5065 16.0484 20.625 15.75 20.625H8.25C8.04107 20.625 7.83628 20.5668 7.65855 20.457C7.48083 20.3471 7.3372 20.19 7.24377 20.0031C7.15034 19.8163 7.11078 19.6071 7.12955 19.399C7.14831 19.1909 7.22465 18.9921 7.35 18.825L14.0953 9.8325C14.3195 9.53672 14.4784 9.19675 14.5616 8.83504C14.6448 8.47332 14.6503 8.09808 14.5778 7.73408C14.5053 7.37007 14.3564 7.02558 14.141 6.72333C13.9256 6.42108 13.6486 6.16795 13.3281 5.98064C13.0077 5.79333 12.6512 5.67609 12.2822 5.63667C11.9131 5.59725 11.5399 5.63654 11.1871 5.75195C10.8344 5.86736 10.5101 6.05626 10.2357 6.30619C9.96133 6.55612 9.74306 6.8614 9.59531 7.20188C9.47572 7.47538 9.25237 7.69018 8.97441 7.79901C8.69644 7.90784 8.38663 7.90179 8.11313 7.78219C7.83962 7.6626 7.62483 7.43925 7.516 7.16128C7.40717 6.88332 7.41322 6.57351 7.53281 6.3C7.68553 5.95099 7.8784 5.62095 8.1075 5.31657C8.88562 4.28396 10.0421 3.60276 11.3224 3.42281C11.9564 3.33371 12.6017 3.37035 13.2216 3.53065C13.8414 3.69094 14.4236 3.97175 14.9348 4.35703C15.4461 4.74232 15.8765 5.22454 16.2015 5.77616C16.5264 6.32778 16.7395 6.938 16.8286 7.57198C16.9177 8.20596 16.8811 8.85128 16.7208 9.47109C16.5605 10.0909 16.2797 10.6731 15.8944 11.1844L10.5 18.375H15.75C16.0484 18.375 16.3345 18.4935 16.5455 18.7045C16.7565 18.9155 16.875 19.2016 16.875 19.5Z" fill="white"/>
</svg>
