<svg width="63" height="58" viewBox="0 0 63 58" fill="none" xmlns="http://www.w3.org/2000/svg">
<path d="M50.2155 0C50.8185 0 51.4215 0.0314997 52.029 0.0854997C53.928 0.2655 55.3815 1.8585 55.3725 3.762V45.216C55.3725 47.205 53.7975 48.8295 51.8175 48.9015C48.24 49.0365 45.2025 49.5135 42.723 50.3415C39.465 51.4305 36.297 53.4015 33.228 56.259V9.909C35.3642 6.12952 38.708 3.17713 42.723 1.5255C45.0952 0.527038 47.6417 0.00855206 50.2155 0ZM59.0715 46.089V8.2575C60.048 8.2575 60.993 8.6445 61.6815 9.3375C62.37 10.035 62.7615 10.971 62.7615 11.9475V49.4775C62.7615 52.4115 60.9255 57.1545 55.3815 56.6775C51.471 56.3445 51.219 56.205 47.925 56.2635C44.694 56.3175 40.176 56.205 36.135 57.1545C38.3985 55.2645 41.7105 53.928 43.902 53.4645C46.089 52.992 48.8205 52.7895 52.0335 52.668C56.1105 52.524 59.0715 49.4595 59.0715 46.0845V46.089ZM12.555 0C15.1065 0 17.604 0.513 20.052 1.53C24.0637 3.17862 27.4047 6.12812 29.538 9.9045V56.2725C26.478 53.4105 23.3055 51.435 20.052 50.3505C17.568 49.5315 14.5395 49.0455 10.953 48.9195C9.99797 48.8856 9.09355 48.4817 8.43097 47.7931C7.76838 47.1044 7.39956 46.1851 7.4025 45.2295V3.7575C7.4025 1.854 8.8515 0.2655 10.7505 0.0899999C11.349 0.0269999 11.952 0 12.555 0ZM3.699 46.089C3.699 49.131 5.949 52.497 10.809 52.6725C14.031 52.794 16.0425 53.145 18.8775 53.469C21.7125 53.784 24.435 55.2735 26.6985 57.159C22.6575 56.214 18.477 56.268 14.85 56.268C11.9925 56.268 11.493 56.682 7.389 56.682C2.547 56.682 0 52.3035 0 49.482V11.9475C0 10.9689 0.388766 10.0303 1.08078 9.33828C1.77278 8.64627 2.71135 8.2575 3.69 8.2575V46.0935H3.699V46.089Z" fill="#EDEDED"/>
</svg>
