<svg width="53" height="57" viewBox="0 0 53 57" fill="none" xmlns="http://www.w3.org/2000/svg">
<path d="M44.8692 1.31459e-05H8.07C5.93932 -0.00383342 3.8939 0.836603 2.38144 2.33737C0.868981 3.83813 0.0126924 5.87697 0 8.00761V48.3876C0.0120599 50.5187 0.86807 52.5581 2.3806 54.0594C3.89312 55.5607 5.93891 56.4015 8.07 56.3976H18.078C19.0464 56.3976 20.0148 55.3968 20.0148 54.3948C20.0148 54.0612 20.0148 53.7276 19.692 53.394L12.2664 44.3844C18.508 35.262 25.6096 30.59 33.5712 30.3684C39.3832 30.1452 44.8712 31.3684 50.0352 34.038H50.6808C51.6492 34.038 52.6164 33.0372 52.6164 32.0352V8.00761C52.944 3.66961 49.3908 1.31459e-05 44.8692 1.31459e-05ZM43.2576 19.0224C43.2576 20.0232 42.6108 20.6904 41.6424 20.6904H40.9968C40.0284 20.3568 39.7044 19.356 39.7044 18.3552L40.35 15.6852L28.7304 26.6964L19.0464 21.6924L11.6208 28.032C11.298 28.3656 10.9764 28.3656 10.6524 28.3656C10.0056 28.3656 9.36 28.032 8.7156 27.3636C8.07 26.3628 8.394 24.6948 9.3624 24.0276L18.7224 16.3524L28.0836 21.3576L36.8016 13.0152L35.5092 13.3464C34.542 13.3464 33.8952 12.6792 33.5712 11.6784C33.5712 10.6776 34.2168 9.67681 34.8636 9.67681L44.226 8.34121L43.2576 19.0212V19.0224Z" fill="#EDEDED"/>
</svg>
