<svg width="42" height="23" viewBox="0 0 42 23" fill="none" xmlns="http://www.w3.org/2000/svg">
<path d="M40.2516 9.822C39.8796 9.4608 31.3884 0 20.6796 0C9.9708 0 1.4796 9.4608 1.1076 9.822L0 11.28L1.1076 12.7368C1.4796 13.098 9.9708 22.5588 20.6796 22.5588C31.3884 22.5588 39.8796 13.098 40.2516 12.7368L41.3592 11.28L40.2516 9.822ZM20.6796 18.1956C15.1404 17.4672 9.9708 15.2832 6.2772 11.2824C10.0191 7.22323 15.1721 4.74934 20.6796 4.368C26.1868 4.74871 31.3397 7.22171 35.082 11.28C31.3884 15.2808 26.2188 17.4648 20.6796 18.192V18.1956Z" fill="#EDEDED"/>
</svg>
