<svg width="8" height="8" viewBox="0 0 8 8" fill="none" xmlns="http://www.w3.org/2000/svg">
<path d="M7.5192 3.762C7.5192 3.8852 7.5132 4.008 7.5012 4.1304C7.4892 4.2528 7.4712 4.3744 7.4472 4.4952C7.4232 4.6152 7.3932 4.7344 7.3572 4.8528C7.3212 4.9712 7.28 5.0872 7.2336 5.2008C7.1856 5.3144 7.1328 5.4256 7.0752 5.5344C7.0168 5.6424 6.9536 5.7476 6.8856 5.85C6.8168 5.9524 6.7436 6.0512 6.666 6.1464C6.5876 6.2424 6.5048 6.3336 6.4176 6.42C6.3304 6.5072 6.2392 6.59 6.144 6.6684C6.0488 6.746 5.9504 6.8192 5.8488 6.888C5.7464 6.956 5.6408 7.0192 5.532 7.0776C5.4232 7.1352 5.312 7.1876 5.1984 7.2348C5.0848 7.2828 4.9688 7.3244 4.8504 7.3596C4.7328 7.3956 4.6136 7.4256 4.4928 7.4496C4.3728 7.4736 4.2512 7.4916 4.128 7.5036C4.0056 7.5156 3.8828 7.5216 3.7596 7.5216C3.6364 7.5216 3.5136 7.5152 3.3912 7.5024C3.2688 7.4904 3.1472 7.4724 3.0264 7.4484C2.9056 7.4244 2.786 7.3944 2.6676 7.3584C2.55 7.3224 2.434 7.2808 2.3196 7.2336C2.2068 7.1864 2.096 7.134 1.9872 7.0764C1.8784 7.018 1.7728 6.9548 1.6704 6.8868C1.568 6.818 1.4692 6.7448 1.374 6.6672C1.2788 6.5888 1.1876 6.506 1.1004 6.4188C1.0132 6.3316 0.9308 6.2404 0.8532 6.1452C0.7748 6.05 0.701602 5.9512 0.633602 5.8488C0.564802 5.7464 0.501602 5.6412 0.444002 5.5332C0.385602 5.4244 0.332802 5.3132 0.285602 5.1996C0.238402 5.086 0.1968 4.97 0.1608 4.8516C0.1256 4.734 0.0960034 4.6148 0.0720034 4.494C0.0480033 4.3732 0.0300029 4.2516 0.018003 4.1292C0.00600299 4.0068 0 3.884 0 3.7608C0 3.6376 0.00600299 3.5148 0.018003 3.3924C0.030003 3.2692 0.0480034 3.1472 0.0720034 3.0264C0.0960034 2.9064 0.125599 2.7872 0.1608 2.6688C0.1968 2.5512 0.238402 2.4352 0.285602 2.3208C0.332802 2.2072 0.385602 2.0964 0.444002 1.9884C0.501602 1.8796 0.564802 1.774 0.633602 1.6716C0.701602 1.5692 0.7748 1.4704 0.8532 1.3752C0.9308 1.28 1.0132 1.1888 1.1004 1.1016C1.1884 1.0144 1.2796 0.932002 1.374 0.854402C1.47 0.776002 1.5688 0.702799 1.6704 0.634799C1.7728 0.566 1.8784 0.502398 1.9872 0.443998C2.096 0.386398 2.2072 0.333999 2.3208 0.286799C2.4344 0.239599 2.5504 0.198001 2.6688 0.162001C2.7864 0.126801 2.9056 0.0972007 3.0264 0.0732007C3.1464 0.0492007 3.268 0.0312003 3.3912 0.0192003C3.5136 0.00640031 3.6364 0 3.7596 0C3.8828 0 4.0056 0.00640031 4.128 0.0192003C4.2504 0.0312003 4.372 0.0492007 4.4928 0.0732007C4.6136 0.0972007 4.7328 0.126801 4.8504 0.162001C4.9688 0.198001 5.0848 0.239599 5.1984 0.286799C5.312 0.333999 5.4232 0.386398 5.532 0.443998C5.6408 0.502398 5.7464 0.566 5.8488 0.634799C5.9504 0.702799 6.0488 0.776002 6.144 0.854402C6.24 0.932002 6.3312 1.0144 6.4176 1.1016C6.5056 1.1888 6.5884 1.28 6.666 1.3752C6.7436 1.4704 6.8168 1.5692 6.8856 1.6716C6.9536 1.774 7.0168 1.8796 7.0752 1.9884C7.1336 2.0964 7.1864 2.2076 7.2336 2.322C7.28 2.4356 7.3212 2.5516 7.3572 2.67C7.3932 2.7868 7.4232 2.9056 7.4472 3.0264C7.4712 3.1472 7.4892 3.2692 7.5012 3.3924C7.5132 3.5148 7.5192 3.6376 7.5192 3.7608V3.762Z" fill="#EDEDED"/>
</svg>
