<svg width="58" height="55" viewBox="0 0 58 55" fill="none" xmlns="http://www.w3.org/2000/svg">
<path d="M51.5556 0C53.2647 0 54.9039 0.683308 56.1125 1.89961C57.321 3.1159 58 4.76556 58 6.48566V38.914C58 40.6341 57.321 42.2837 56.1125 43.5C54.9039 44.7163 53.2647 45.3996 51.5556 45.3996H36.25L31.8098 53.3446C31.5297 53.8467 31.1217 54.2648 30.6279 54.5557C30.1341 54.8466 29.5722 55 29 55C28.4278 55 27.8659 54.8466 27.3721 54.5557C26.8783 54.2648 26.4703 53.8467 26.1902 53.3446L21.75 45.3996H6.44444C4.73527 45.3996 3.0961 44.7163 1.88753 43.5C0.678967 42.2837 0 40.6341 0 38.914V6.48566C0 4.76556 0.678967 3.1159 1.88753 1.89961C3.0961 0.683308 4.73527 0 6.44444 0H51.5556ZM42.6558 11.3499C42.3321 11.3508 42.0117 11.4158 41.713 11.5412C41.4142 11.6667 41.1429 11.8501 40.9146 12.0811C40.6864 12.3121 40.5055 12.586 40.3824 12.8873C40.2593 13.1886 40.1964 13.5114 40.1972 13.8372V33.1839L40.2166 33.4952C40.368 34.721 41.4023 35.6679 42.6558 35.6679C43.3084 35.6653 43.9334 35.4024 44.3937 34.9367C44.854 34.4711 45.112 33.8407 45.1111 33.1839V13.8372L45.0918 13.5258C45.0181 12.9274 44.73 12.3765 44.2815 11.9765C43.833 11.5765 43.255 11.3549 42.6558 11.3531V11.3499ZM24.8981 19.3986L27.7466 25.1676H22.0497L24.8981 19.3986ZM23.8026 11.6158L23.9379 11.5477L23.8316 11.5964L23.7736 11.6288C23.2939 11.8797 22.9092 12.2818 22.678 12.7735L13.1499 32.0683L13.0274 32.3602C12.6214 33.5244 13.1273 34.841 14.2487 35.4085C14.5373 35.554 14.8516 35.6407 15.1737 35.6636C15.4957 35.6864 15.819 35.645 16.1251 35.5416C16.4311 35.4382 16.7139 35.275 16.957 35.0612C17.2001 34.8475 17.3989 34.5875 17.5418 34.2962L19.5911 30.1421H30.2051L32.2577 34.2929L32.4123 34.5653C32.7427 35.0675 33.2444 35.4306 33.8227 35.586C34.4009 35.7413 35.0156 35.6782 35.5508 35.4085C36.1349 35.1104 36.5782 34.5919 36.784 33.9663C36.9898 33.3406 36.9415 32.6583 36.6496 32.0683L27.0989 12.7281L27.0667 12.6633C27.0443 12.6193 27.0207 12.5761 26.9958 12.5335L26.9442 12.459C26.8943 12.3838 26.8405 12.3113 26.7831 12.2417L26.6639 12.1055C26.5778 12.0164 26.4852 11.9341 26.3868 11.859L26.2482 11.7617L26.0227 11.6288L26.1483 11.6969L26.0742 11.6547L26.0001 11.6158C25.7761 11.4987 25.5344 11.4198 25.2848 11.3823L25.1333 11.3629C25.1086 11.3614 25.0839 11.3603 25.0592 11.3596L24.9207 11.3531H24.8111C24.7357 11.3562 24.6604 11.3627 24.5856 11.3726L24.4631 11.3921C24.3783 11.4082 24.2944 11.4287 24.2118 11.4537L24.1022 11.4861H24.1054L24.0732 11.4991L23.8026 11.6158Z" fill="#EDEDED"/>
</svg>
