<svg width="54" height="59" viewBox="0 0 54 59" fill="none" xmlns="http://www.w3.org/2000/svg">
<path d="M45.0077 24.7474C43.0124 24.7493 41.074 25.413 39.4963 26.6345C37.9186 27.8559 36.7905 29.5662 36.2889 31.4974H29.2577C27.5119 31.4933 25.7908 31.0849 24.2293 30.3041C22.6678 29.5234 21.3084 28.3916 20.2577 26.9974L12.858 17.1312C14.7708 16.2236 16.3024 14.6708 17.1836 12.7456C18.0647 10.8205 18.2389 8.64633 17.6756 6.60544C17.1123 4.56454 15.8475 2.78758 14.1036 1.58698C12.3597 0.386377 10.2484 -0.160991 8.14088 0.0411145C6.03335 0.24322 4.06452 1.18186 2.58059 2.692C1.09666 4.20213 0.19263 6.18708 0.0274458 8.29784C-0.137738 10.4086 0.446503 12.51 1.67745 14.2326C2.90839 15.9552 4.70722 17.1887 6.75766 17.7162V40.7787C4.63668 41.3263 2.78823 42.6287 1.55881 44.4417C0.329378 46.2547 -0.196625 48.4539 0.0793926 50.6269C0.35541 52.8 1.4145 54.7978 3.05814 56.2459C4.70177 57.694 6.81712 58.4929 9.00766 58.4929C11.1982 58.4929 13.3135 57.694 14.9572 56.2459C16.6008 54.7978 17.6599 52.8 17.9359 50.6269C18.2119 48.4539 17.6859 46.2547 16.4565 44.4417C15.2271 42.6287 13.3786 41.3263 11.2577 40.7787V22.4974L16.6577 29.6975C18.1286 31.6494 20.0318 33.234 22.2179 34.327C24.404 35.42 26.8135 35.9918 29.2577 35.9974H36.2889C36.7097 37.6271 37.579 39.1061 38.7982 40.2665C40.0173 41.4269 41.5374 42.2222 43.1859 42.5621C44.8343 42.9019 46.545 42.7727 48.1237 42.1891C49.7024 41.6055 51.0858 40.5909 52.1169 39.2606C53.1479 37.9302 53.7852 36.3374 53.9564 34.663C54.1277 32.9887 53.8259 31.2998 53.0855 29.7883C52.3451 28.2768 51.1957 27.0032 49.7678 26.1122C48.3399 25.2211 46.6908 24.7483 45.0077 24.7474ZM13.5077 49.4974C13.5077 50.3875 13.2437 51.2575 12.7493 51.9975C12.2548 52.7375 11.552 53.3143 10.7297 53.6549C9.90747 53.9955 9.00267 54.0846 8.12975 53.911C7.25684 53.7373 6.45502 53.3088 5.82568 52.6794C5.19634 52.0501 4.76776 51.2483 4.59413 50.3754C4.42049 49.5024 4.50961 48.5976 4.8502 47.7754C5.1908 46.9531 5.76757 46.2503 6.50759 45.7558C7.24762 45.2614 8.11764 44.9974 9.00766 44.9974C10.2011 44.9974 11.3457 45.4716 12.1896 46.3155C13.0336 47.1594 13.5077 48.304 13.5077 49.4974ZM45.0077 38.2474C43.8142 38.2474 42.6696 37.7733 41.8257 36.9294C40.9818 36.0855 40.5077 34.9409 40.5077 33.7474C40.5077 32.8574 40.7716 31.9874 41.266 31.2474C41.7605 30.5074 42.4633 29.9306 43.2856 29.59C44.1079 29.2494 45.0127 29.1603 45.8856 29.3339C46.7585 29.5075 47.5603 29.9361 48.1896 30.5655C48.819 31.1948 49.2476 31.9966 49.4212 32.8695C49.5948 33.7425 49.5057 34.6473 49.1651 35.4695C48.8245 36.2918 48.2477 36.9946 47.5077 37.4891C46.7677 37.9835 45.8977 38.2474 45.0077 38.2474Z" fill="var(--Neutral-30, #EDEDED)"/>
</svg>
