<svg width="32" height="31" viewBox="0 0 32 31" fill="none" xmlns="http://www.w3.org/2000/svg">
<path d="M9.5476 1.17611C12.3734 0.00652975 15.4828 -0.29926 18.4828 0.296981C21.4828 0.893302 24.2393 2.36452 26.4022 4.52585L20.934 9.99C19.8526 8.90942 18.4746 8.17378 16.9747 7.87559C15.4747 7.57742 13.9194 7.7307 12.5064 8.3155C11.0935 8.90038 9.88592 9.89055 9.0363 11.1612C8.18661 12.4319 7.733 13.9259 7.73292 15.4542C7.733 16.9826 8.18661 18.4765 9.0363 19.7472C9.886 21.0179 11.0934 22.0088 12.5064 22.5936C13.9194 23.1785 15.4747 23.331 16.9747 23.0328C18.4746 22.7346 19.8526 21.999 20.934 20.9184L26.4022 26.3826C24.2392 28.5439 21.4828 30.0158 18.4828 30.6122C15.4829 31.2084 12.3734 30.9019 9.5476 29.7323C6.72165 28.5626 4.30624 26.5817 2.60684 24.0403C0.907443 21.4988 -5.47518e-05 18.5109 2.47757e-09 15.4542C-5.06689e-05 12.3976 0.907443 9.40968 2.60684 6.86818C4.30623 4.32677 6.72166 2.34582 9.5476 1.17611ZM31.8696 9.99C31.1516 10.7075 30.5825 11.5595 30.1939 12.4969C29.8053 13.4344 29.6049 14.4394 29.6049 15.4542C29.6049 16.4689 29.8053 17.474 30.1939 18.4116C30.5825 19.3489 31.1516 20.2009 31.8696 20.9184L26.4022 26.3826C24.966 24.9475 23.8264 23.2432 23.0492 21.3681C22.272 19.4932 21.8719 17.4836 21.8719 15.4542C21.8719 13.4248 22.272 11.4152 23.0492 9.54028C23.8264 7.66524 24.966 5.96094 26.4022 4.52585L31.8696 9.99Z" fill="#0971DA"/>
</svg>
