<svg width="12" height="12" viewBox="0 0 12 12" fill="none" xmlns="http://www.w3.org/2000/svg">
<path d="M11.8221 5.97164C11.8221 6.188 11.8004 6.51255 11.7788 6.77218H2.70652C3.0313 8.45982 4.43869 9.54164 6.45234 9.54164C7.75147 9.54164 8.76912 9.13055 9.59191 8.28673L11.0426 9.95273C10.0033 11.186 8.37939 11.8351 6.38739 11.8351C2.51165 11.8351 0 9.34691 0 5.90673C0 2.46655 2.5333 0 5.976 0C9.35374 0 11.8221 2.35836 11.8221 5.97164ZM5.976 2.16364C4.22217 2.16364 2.9447 3.28873 2.68487 4.97636H9.24547C9.02895 3.31036 7.75148 2.16364 5.976 2.16364Z" fill="white"/>
</svg>
