<svg width="13" height="17" viewBox="0 0 13 17" fill="none" xmlns="http://www.w3.org/2000/svg">
<path d="M9.85173 0.129818H12.4283V9.93109C12.4283 14.1285 10.2415 16.0325 6.19252 16.0325C4.0273 16.0325 1.88374 15.47 0.562954 14.3882L1.77547 12.3544C2.79312 13.1982 4.43869 13.7391 6.04095 13.7391C8.59591 13.7391 9.72182 12.5707 9.72182 10.234V9.62818C8.76912 10.6667 7.40504 11.1644 5.84609 11.1644C2.5333 11.1644 0 8.91418 0 5.56055C0 2.20691 2.5333 0 5.84609 0C7.47 0 8.89904 0.519272 9.85173 1.666V0.129818ZM6.25747 8.87091C8.29278 8.87091 9.76512 7.52945 9.76512 5.56055C9.76512 3.61327 8.29278 2.29345 6.25747 2.29345C4.20052 2.29345 2.72817 3.61327 2.72817 5.56055C2.72817 7.52945 4.20052 8.87091 6.25747 8.87091Z" fill="white"/>
</svg>
