<svg width="30" height="30" viewBox="0 0 30 30" fill="none" xmlns="http://www.w3.org/2000/svg">
<path d="M8.97245 1.10693C11.6281 0.00614565 14.5501 -0.281657 17.3693 0.279512C20.1887 0.840755 22.7791 2.22543 24.8117 4.25963L19.6729 9.40235C18.6566 8.38534 17.3617 7.69297 15.9521 7.41232C14.5424 7.13169 13.0809 7.27595 11.753 7.82635C10.4252 8.37683 9.29038 9.30875 8.49195 10.5047C7.69344 11.7006 7.26715 13.1067 7.26708 14.5451C7.26715 15.9836 7.69344 17.3896 8.49195 18.5856C9.29045 19.7816 10.4251 20.7142 11.753 21.2646C13.0809 21.8151 14.5424 21.9586 15.9521 21.6779C17.3617 21.3973 18.6566 20.705 19.6729 19.6879L24.8117 24.8306C22.779 26.8648 20.1887 28.2502 17.3693 28.8114C14.5501 29.3726 11.6281 29.0841 8.97245 27.9834C6.31674 26.8824 4.04683 25.0181 2.4498 22.6261C0.852777 20.2341 -5.14535e-05 17.422 2.32832e-09 14.5451C-4.76166e-05 11.6683 0.852777 8.85617 2.4498 6.46417C4.04682 4.07225 6.31674 2.20783 8.97245 1.10693ZM29.9497 9.40235C29.275 10.0776 28.7401 10.8795 28.375 11.7618C28.0098 12.6441 27.8214 13.5901 27.8214 14.5451C27.8214 15.5002 28.0098 16.4461 28.375 17.3285C28.7401 18.2107 29.275 19.0126 29.9497 19.6879L24.8117 24.8306C23.4621 23.48 22.3911 21.876 21.6607 20.1112C20.9304 18.3465 20.5543 16.4552 20.5544 14.5451C20.5543 12.6351 20.9304 10.7437 21.6607 8.97908C22.3911 7.21434 23.4621 5.6103 24.8117 4.25963L29.9497 9.40235Z" fill="#0971DA"/>
</svg>
