<svg width="12" height="16" viewBox="0 0 12 16" fill="none" xmlns="http://www.w3.org/2000/svg">
<path d="M9.25825 0.122181H11.6796V9.34691C11.6796 13.2975 9.62452 15.0895 5.81947 15.0895C3.78469 15.0895 1.77026 14.56 0.529041 13.5418L1.66851 11.6276C2.62486 12.4218 4.1713 12.9309 5.67704 12.9309C8.07808 12.9309 9.13617 11.8313 9.13617 9.632V9.06182C8.24086 10.0393 6.95895 10.5076 5.49391 10.5076C2.38069 10.5076 0 8.38982 0 5.23345C0 2.07709 2.38069 0 5.49391 0C7.02 0 8.36295 0.488727 9.25825 1.568V0.122181ZM5.88052 8.34909C7.79321 8.34909 9.17686 7.08654 9.17686 5.23345C9.17686 3.40073 7.79321 2.15855 5.88052 2.15855C3.94747 2.15855 2.56383 3.40073 2.56383 5.23345C2.56383 7.08654 3.94747 8.34909 5.88052 8.34909Z" fill="white"/>
</svg>
