<svg width="12" height="12" viewBox="0 0 12 12" fill="none" xmlns="http://www.w3.org/2000/svg">
<path d="M11.1099 5.62036C11.1099 5.824 11.0896 6.12945 11.0692 6.37382H2.54348C2.8487 7.96218 4.17131 8.98036 6.06365 8.98036C7.28452 8.98036 8.24087 8.59345 9.01409 7.79927L10.3774 9.36727C9.4007 10.528 7.87461 11.1389 6.00261 11.1389C2.36035 11.1389 0 8.79709 0 5.55927C0 2.32145 2.3807 0 5.616 0C8.79026 0 11.1099 2.21964 11.1099 5.62036ZM5.616 2.03636C3.96783 2.03636 2.76731 3.09527 2.52314 4.68364H8.68852C8.48504 3.11564 7.28452 2.03636 5.616 2.03636Z" fill="white"/>
</svg>
