<svg width="1440" height="1747" viewBox="0 0 1440 1747" fill="none" xmlns="http://www.w3.org/2000/svg">
<g filter="url(#filter0_f_4_102567)">
<path d="M1041.74 842.355C-421.625 1386.79 -1245.68 717.044 -2204.05 745.933C-2270.45 747.934 -2316.64 797.591 -2301.17 853.168C-2193.76 1238.96 -1723.9 2039.81 -475.058 2834.22C1237.2 3923.4 2945.87 133.94 1041.74 842.355Z" fill="#032241"/>
</g>
<g filter="url(#filter1_f_4_102567)">
<path d="M829.47 1082.4C-154.087 1428.15 -1086.63 1184.78 -1604.26 939.059C-1702.89 892.236 -1815.35 954.809 -1772.67 1043.21C-1603.14 1394.36 -1180.23 1961 -312.864 2540.63C1086.09 3475.49 2303.34 564.282 829.47 1082.4Z" fill="#054483"/>
</g>
<g filter="url(#filter2_f_4_102567)">
<path d="M557.165 1538.71C-170.565 1715.79 -1071.83 1362.13 -1554.95 1098.45C-1591.5 1078.5 -1629.85 1121.07 -1603.61 1153.41C-1075.47 1804.46 -75.3104 2369.56 616.226 2159.22C1359.63 1933.1 1579.54 1289.93 557.165 1538.71Z" fill="white"/>
</g>
<defs>
<filter id="filter0_f_4_102567" x="-3072.17" y="-22.9807" width="5718.73" height="3823.32" filterUnits="userSpaceOnUse" color-interpolation-filters="sRGB">
<feFlood flood-opacity="0" result="BackgroundImageFix"/>
<feBlend mode="normal" in="SourceGraphic" in2="BackgroundImageFix" result="shape"/>
<feGaussianBlur stdDeviation="384" result="effect1_foregroundBlur_4_102567"/>
</filter>
<filter id="filter1_f_4_102567" x="-2165.98" y="539.088" width="4049.91" height="2571.99" filterUnits="userSpaceOnUse" color-interpolation-filters="sRGB">
<feFlood flood-opacity="0" result="BackgroundImageFix"/>
<feBlend mode="normal" in="SourceGraphic" in2="BackgroundImageFix" result="shape"/>
<feGaussianBlur stdDeviation="192" result="effect1_foregroundBlur_4_102567"/>
</filter>
<filter id="filter2_f_4_102567" x="-2124.27" y="581.326" width="3886.5" height="2134.58" filterUnits="userSpaceOnUse" color-interpolation-filters="sRGB">
<feFlood flood-opacity="0" result="BackgroundImageFix"/>
<feBlend mode="normal" in="SourceGraphic" in2="BackgroundImageFix" result="shape"/>
<feGaussianBlur stdDeviation="256" result="effect1_foregroundBlur_4_102567"/>
</filter>
</defs>
</svg>
