<svg width="32" height="32" viewBox="0 0 32 32" fill="none" xmlns="http://www.w3.org/2000/svg">
<path d="M10.3883 3.06542C12.8711 2.00592 15.6029 1.7289 18.2386 2.26903C20.8744 2.80923 23.2962 4.14199 25.1964 6.09991L20.3922 11.0498C19.4421 10.0709 18.2315 9.40452 16.9136 9.13439C15.5957 8.86429 14.2293 9.00314 12.9879 9.5329C11.7465 10.0627 10.6856 10.9597 9.93912 12.1108C9.19259 13.2619 8.79406 14.6153 8.79399 15.9997C8.79406 17.3843 9.19259 18.7376 9.93912 19.8888C10.6856 21.0398 11.7465 21.9375 12.9879 22.4673C14.2293 22.9971 15.5957 23.1352 16.9136 22.8651C18.2315 22.595 19.4421 21.9286 20.3922 20.9497L25.1964 25.8996C23.2961 27.8575 20.8744 29.191 18.2386 29.7311C15.6029 30.2713 12.8711 29.9936 10.3883 28.9341C7.90551 27.8745 5.78338 26.08 4.29031 23.7778C2.79726 21.4754 1.99995 18.7687 2 15.9997C1.99996 13.2308 2.79726 10.5241 4.29031 8.2218C5.78337 5.91956 7.90552 4.12505 10.3883 3.06542ZM30 11.0498C29.3692 11.6998 28.8691 12.4716 28.5277 13.3208C28.1863 14.17 28.0102 15.0805 28.0102 15.9997C28.0102 16.919 28.1863 17.8295 28.5277 18.6788C28.8691 19.5279 29.3692 20.2997 30 20.9497L25.1964 25.8996C23.9347 24.5996 22.9334 23.0557 22.2506 21.3571C21.5678 19.6586 21.2162 17.8382 21.2163 15.9997C21.2162 14.1613 21.5678 12.3409 22.2506 10.6424C22.9334 8.94384 23.9347 7.39994 25.1964 6.09991L30 11.0498Z" fill="#0971DA"/>
</svg>
