<svg width="72" height="72" viewBox="0 0 72 72" fill="none" xmlns="http://www.w3.org/2000/svg">
<path d="M58.5556 10C60.2647 10 61.9039 10.6833 63.1125 11.8996C64.321 13.1159 65 14.7656 65 16.4857V48.914C65 50.6341 64.321 52.2837 63.1125 53.5C61.9039 54.7163 60.2647 55.3996 58.5556 55.3996H43.25L38.8098 63.3446C38.5297 63.8467 38.1217 64.2648 37.6279 64.5557C37.1341 64.8466 36.5722 65 36 65C35.4278 65 34.8659 64.8466 34.3721 64.5557C33.8783 64.2648 33.4703 63.8467 33.1902 63.3446L28.75 55.3996H13.4444C11.7353 55.3996 10.0961 54.7163 8.88753 53.5C7.67897 52.2837 7 50.6341 7 48.914V16.4857C7 14.7656 7.67897 13.1159 8.88753 11.8996C10.0961 10.6833 11.7353 10 13.4444 10H58.5556ZM49.6558 21.3499C49.3321 21.3508 49.0117 21.4158 48.713 21.5412C48.4142 21.6667 48.1429 21.8501 47.9146 22.0811C47.6864 22.3121 47.5055 22.586 47.3824 22.8873C47.2593 23.1886 47.1964 23.5114 47.1972 23.8372V43.1839L47.2166 43.4952C47.368 44.721 48.4023 45.6679 49.6558 45.6679C50.3084 45.6653 50.9334 45.4024 51.3937 44.9367C51.854 44.4711 52.112 43.8407 52.1111 43.1839V23.8372L52.0918 23.5258C52.0181 22.9274 51.73 22.3765 51.2815 21.9765C50.833 21.5765 50.255 21.3549 49.6558 21.3531V21.3499ZM31.8981 29.3986L34.7466 35.1676H29.0497L31.8981 29.3986ZM30.8026 21.6158L30.9379 21.5477L30.8316 21.5964L30.7736 21.6288C30.2939 21.8797 29.9092 22.2818 29.678 22.7735L20.1499 42.0683L20.0274 42.3602C19.6214 43.5244 20.1273 44.841 21.2487 45.4085C21.5373 45.554 21.8516 45.6407 22.1737 45.6636C22.4957 45.6864 22.819 45.645 23.1251 45.5416C23.4311 45.4382 23.7139 45.275 23.957 45.0612C24.2001 44.8475 24.3989 44.5875 24.5418 44.2962L26.5911 40.1421H37.2051L39.2577 44.2929L39.4123 44.5653C39.7427 45.0675 40.2444 45.4306 40.8227 45.586C41.4009 45.7413 42.0156 45.6782 42.5508 45.4085C43.1349 45.1104 43.5782 44.5919 43.784 43.9663C43.9898 43.3406 43.9415 42.6583 43.6496 42.0683L34.0989 22.7281L34.0667 22.6633C34.0443 22.6193 34.0207 22.5761 33.9958 22.5335L33.9442 22.459C33.8943 22.3838 33.8405 22.3113 33.7831 22.2417L33.6639 22.1055C33.5778 22.0164 33.4852 21.9341 33.3868 21.859L33.2482 21.7617L33.0227 21.6288L33.1483 21.6969L33.0742 21.6547L33.0001 21.6158C32.7761 21.4987 32.5344 21.4198 32.2848 21.3823L32.1333 21.3629C32.1086 21.3614 32.0839 21.3603 32.0592 21.3596L31.9207 21.3531H31.8111C31.7357 21.3562 31.6604 21.3627 31.5856 21.3726L31.4631 21.3921C31.3783 21.4082 31.2944 21.4287 31.2118 21.4537L31.1022 21.4861H31.1054L31.0732 21.4991L30.8026 21.6158Z" fill="#EDEDED"/>
</svg>
