<svg width="72" height="72" viewBox="0 0 72 72" fill="none" xmlns="http://www.w3.org/2000/svg">
<path d="M58.5011 31.4999C56.5058 31.5018 54.5674 32.1654 52.9897 33.3869C51.412 34.6084 50.2839 36.3187 49.7823 38.2499H42.7511C41.0053 38.2458 39.2842 37.8373 37.7227 37.0566C36.1612 36.2758 34.8018 35.144 33.7511 33.7499L26.3514 23.8836C28.2642 22.9761 29.7958 21.4232 30.677 19.4981C31.5581 17.5729 31.7323 15.3988 31.169 13.3579C30.6057 11.317 29.3409 9.54002 27.597 8.33942C25.8532 7.13882 23.7418 6.59145 21.6343 6.79356C19.5268 6.99566 17.5579 7.9343 16.074 9.44444C14.5901 10.9546 13.686 12.9395 13.5209 15.0503C13.3557 17.161 13.9399 19.2624 15.1709 20.985C16.4018 22.7076 18.2006 23.9411 20.2511 24.4686V47.5311C18.1301 48.0788 16.2816 49.3812 15.0522 51.1942C13.8228 53.0072 13.2968 55.2063 13.5728 57.3794C13.8488 59.5525 14.9079 61.5503 16.5515 62.9984C18.1952 64.4464 20.3105 65.2454 22.5011 65.2454C24.6916 65.2454 26.807 64.4464 28.4506 62.9984C30.0942 61.5503 31.1533 59.5525 31.4293 57.3794C31.7054 55.2063 31.1793 53.0072 29.9499 51.1942C28.7205 49.3812 26.872 48.0788 24.7511 47.5311V29.2499L30.1511 36.4499C31.622 38.4018 33.5252 39.9864 35.7113 41.0794C37.8974 42.1725 40.307 42.7442 42.7511 42.7499H49.7823C50.2031 44.3796 51.0724 45.8586 52.2916 47.019C53.5107 48.1794 55.0308 48.9747 56.6793 49.3145C58.3277 49.6544 60.0384 49.5252 61.6171 48.9416C63.1958 48.358 64.5792 47.3434 65.6103 46.013C66.6413 44.6827 67.2786 43.0899 67.4498 41.4155C67.6211 39.7411 67.3193 38.0523 66.5789 36.5408C65.8385 35.0293 64.6891 33.7556 63.2612 32.8646C61.8333 31.9735 60.1842 31.5007 58.5011 31.4999ZM27.0011 56.2499C27.0011 57.1399 26.7371 58.0099 26.2427 58.75C25.7482 59.49 25.0454 60.0668 24.2231 60.4073C23.4009 60.7479 22.4961 60.8371 21.6232 60.6634C20.7502 60.4898 19.9484 60.0612 19.3191 59.4319C18.6898 58.8025 18.2612 58.0007 18.0875 57.1278C17.9139 56.2549 18.003 55.3501 18.3436 54.5278C18.6842 53.7055 19.261 53.0027 20.001 52.5083C20.741 52.0138 21.6111 51.7499 22.5011 51.7499C23.6945 51.7499 24.8391 52.224 25.683 53.0679C26.527 53.9118 27.0011 55.0564 27.0011 56.2499ZM58.5011 44.9999C57.3076 44.9999 56.163 44.5258 55.3191 43.6819C54.4752 42.838 54.0011 41.6934 54.0011 40.4999C54.0011 39.6099 54.265 38.7398 54.7595 37.9998C55.2539 37.2598 55.9567 36.683 56.779 36.3424C57.6013 36.0018 58.5061 35.9127 59.379 36.0864C60.2519 36.26 61.0537 36.6886 61.683 37.3179C62.3124 37.9472 62.741 38.7491 62.9146 39.622C63.0882 40.4949 62.9991 41.3997 62.6585 42.222C62.3179 43.0442 61.7412 43.747 61.0011 44.2415C60.2611 44.736 59.3911 44.9999 58.5011 44.9999Z" fill="#EDEDED"/>
</svg>
