<svg width="72" height="72" viewBox="0 0 72 72" fill="none" xmlns="http://www.w3.org/2000/svg">
<path d="M54.72 7.04248C55.323 7.04248 55.926 7.07398 56.5335 7.12798C58.4325 7.30798 59.886 8.90098 59.877 10.8045V52.2585C59.877 54.2475 58.302 55.872 56.322 55.944C52.7445 56.079 49.707 56.556 47.2275 57.384C43.9695 58.473 40.8015 60.444 37.7325 63.3015V16.9515C39.8687 13.172 43.2125 10.2196 47.2275 8.56798C49.5997 7.56952 52.1462 7.05103 54.72 7.04248ZM63.576 53.1315V15.3C64.5525 15.3 65.4975 15.687 66.186 16.38C66.8745 17.0775 67.266 18.0135 67.266 18.99V56.52C67.266 59.454 65.43 64.197 59.886 63.72C55.9755 63.387 55.7235 63.2475 52.4295 63.306C49.1985 63.36 44.6805 63.2475 40.6395 64.197C42.903 62.307 46.215 60.9705 48.4065 60.507C50.5935 60.0345 53.325 59.832 56.538 59.7105C60.615 59.5665 63.576 56.502 63.576 53.127V53.1315ZM17.0595 7.04248C19.611 7.04248 22.1085 7.55548 24.5565 8.57248C28.5682 10.2211 31.9092 13.1706 34.0425 16.947V63.315C30.9825 60.453 27.81 58.4775 24.5565 57.393C22.0725 56.574 19.044 56.088 15.4575 55.962C14.5025 55.9281 13.5981 55.5242 12.9355 54.8355C12.2729 54.1469 11.9041 53.2276 11.907 52.272V10.8C11.907 8.89648 13.356 7.30798 15.255 7.13248C15.8535 7.06948 16.4565 7.04248 17.0595 7.04248ZM8.2035 53.1315C8.2035 56.1735 10.4535 59.5395 15.3135 59.715C18.5355 59.8365 20.547 60.1875 23.382 60.5115C26.217 60.8265 28.9395 62.316 31.203 64.2015C27.162 63.2565 22.9815 63.3105 19.3545 63.3105C16.497 63.3105 15.9975 63.7245 11.8935 63.7245C7.0515 63.7245 4.5045 59.346 4.5045 56.5245V18.99C4.5045 18.0113 4.89327 17.0728 5.58528 16.3808C6.27729 15.6887 7.21585 15.3 8.1945 15.3V53.136H8.2035V53.1315Z" fill="#EDEDED"/>
</svg>
