<svg width="72" height="72" viewBox="0 0 72 72" fill="none" xmlns="http://www.w3.org/2000/svg">
<path d="M51.2604 6.86159H14.4612C12.3305 6.85774 10.2851 7.69818 8.77261 9.19894C7.26016 10.6997 6.40387 12.7385 6.39117 14.8692V55.2492C6.40323 57.3802 7.25924 59.4197 8.77177 60.921C10.2843 62.4223 12.3301 63.263 14.4612 63.2592H24.4692C25.4376 63.2592 26.406 62.2584 26.406 61.2564C26.406 60.9228 26.406 60.5892 26.0832 60.2556L18.6576 51.246C24.8992 42.1236 32.0008 37.4516 39.9624 37.23C45.7744 37.0068 51.2624 38.23 56.4264 40.8996H57.072C58.0404 40.8996 59.0076 39.8988 59.0076 38.8968V14.8692C59.3352 10.5312 55.782 6.86159 51.2604 6.86159ZM49.6488 25.884C49.6488 26.8848 49.002 27.552 48.0336 27.552H47.388C46.4196 27.2184 46.0956 26.2176 46.0956 25.2168L46.7412 22.5468L35.1216 33.558L25.4376 28.554L18.012 34.8936C17.6892 35.2272 17.3676 35.2272 17.0436 35.2272C16.3968 35.2272 15.7512 34.8936 15.1068 34.2252C14.4612 33.2244 14.7852 31.5564 15.7536 30.8892L25.1136 23.214L34.4748 28.2192L43.1928 19.8768L41.9004 20.208C40.9332 20.208 40.2864 19.5408 39.9624 18.54C39.9624 17.5392 40.608 16.5384 41.2548 16.5384L50.6172 15.2028L49.6488 25.8828V25.884Z" fill="#EDEDED"/>
<path d="M64.5012 52.4016C64.1292 52.0404 55.638 42.5796 44.9292 42.5796C34.2204 42.5796 25.7292 52.0404 25.3572 52.4016L24.2496 53.8596L25.3572 55.3164C25.7292 55.6776 34.2204 65.1384 44.9292 65.1384C55.638 65.1384 64.1292 55.6776 64.5012 55.3164L65.6088 53.8596L64.5012 52.4016ZM44.9292 60.7752C39.39 60.0468 34.2204 57.8628 30.5268 53.862C34.2686 49.8028 39.4216 47.3289 44.9292 46.9476C50.4364 47.3283 55.5893 49.8013 59.3316 53.8596C55.638 57.8604 50.4684 60.0444 44.9292 60.7716V60.7752Z" fill="#EDEDED"/>
<path d="M48.6912 53.8597C48.6912 53.9829 48.6852 54.1057 48.6732 54.2281C48.6612 54.3505 48.6432 54.4721 48.6192 54.5929C48.5952 54.7129 48.5652 54.8321 48.5292 54.9505C48.4932 55.0689 48.452 55.1849 48.4056 55.2985C48.3576 55.4121 48.3048 55.5233 48.2472 55.6321C48.1888 55.7401 48.1256 55.8453 48.0576 55.9477C47.9888 56.0501 47.9156 56.1489 47.838 56.2441C47.7596 56.3401 47.6768 56.4313 47.5896 56.5177C47.5024 56.6049 47.4112 56.6877 47.316 56.7661C47.2208 56.8437 47.1224 56.9169 47.0208 56.9857C46.9184 57.0537 46.8128 57.1169 46.704 57.1753C46.5952 57.2329 46.484 57.2853 46.3704 57.3325C46.2568 57.3805 46.1408 57.4221 46.0224 57.4573C45.9048 57.4933 45.7856 57.5233 45.6648 57.5473C45.5448 57.5713 45.4232 57.5893 45.3 57.6013C45.1776 57.6133 45.0548 57.6193 44.9316 57.6193C44.8084 57.6193 44.6856 57.6129 44.5632 57.6001C44.4408 57.5881 44.3192 57.5701 44.1984 57.5461C44.0776 57.5221 43.958 57.4921 43.8396 57.4561C43.722 57.4201 43.606 57.3785 43.4916 57.3313C43.3788 57.2841 43.268 57.2317 43.1592 57.1741C43.0504 57.1157 42.9448 57.0525 42.8424 56.9845C42.74 56.9157 42.6412 56.8425 42.546 56.7649C42.4508 56.6865 42.3596 56.6037 42.2724 56.5165C42.1852 56.4293 42.1028 56.3381 42.0252 56.2429C41.9468 56.1477 41.8736 56.0489 41.8056 55.9465C41.7368 55.8441 41.6736 55.7389 41.616 55.6309C41.5576 55.5221 41.5048 55.4109 41.4576 55.2973C41.4104 55.1837 41.3688 55.0677 41.3328 54.9493C41.2976 54.8317 41.268 54.7125 41.244 54.5917C41.22 54.4709 41.202 54.3493 41.19 54.2269C41.178 54.1045 41.172 53.9817 41.172 53.8585C41.172 53.7353 41.178 53.6125 41.19 53.4901C41.202 53.3669 41.22 53.2449 41.244 53.1241C41.268 53.0041 41.2976 52.8849 41.3328 52.7665C41.3688 52.6489 41.4104 52.5329 41.4576 52.4185C41.5048 52.3049 41.5576 52.1941 41.616 52.0861C41.6736 51.9773 41.7368 51.8717 41.8056 51.7693C41.8736 51.6669 41.9468 51.5681 42.0252 51.4729C42.1028 51.3777 42.1852 51.2865 42.2724 51.1993C42.3604 51.1121 42.4516 51.0297 42.546 50.9521C42.642 50.8737 42.7408 50.8005 42.8424 50.7325C42.9448 50.6637 43.0504 50.6001 43.1592 50.5417C43.268 50.4841 43.3792 50.4317 43.4928 50.3845C43.6064 50.3373 43.7224 50.2957 43.8408 50.2597C43.9584 50.2245 44.0776 50.1949 44.1984 50.1709C44.3184 50.1469 44.44 50.1289 44.5632 50.1169C44.6856 50.1041 44.8084 50.0977 44.9316 50.0977C45.0548 50.0977 45.1776 50.1041 45.3 50.1169C45.4224 50.1289 45.544 50.1469 45.6648 50.1709C45.7856 50.1949 45.9048 50.2245 46.0224 50.2597C46.1408 50.2957 46.2568 50.3373 46.3704 50.3845C46.484 50.4317 46.5952 50.4841 46.704 50.5417C46.8128 50.6001 46.9184 50.6637 47.0208 50.7325C47.1224 50.8005 47.2208 50.8737 47.316 50.9521C47.412 51.0297 47.5032 51.1121 47.5896 51.1993C47.6776 51.2865 47.7604 51.3777 47.838 51.4729C47.9156 51.5681 47.9888 51.6669 48.0576 51.7693C48.1256 51.8717 48.1888 51.9773 48.2472 52.0861C48.3056 52.1941 48.3584 52.3053 48.4056 52.4197C48.452 52.5333 48.4932 52.6493 48.5292 52.7677C48.5652 52.8845 48.5952 53.0033 48.6192 53.1241C48.6432 53.2449 48.6612 53.3669 48.6732 53.4901C48.6852 53.6125 48.6912 53.7353 48.6912 53.8585V53.8597Z" fill="#EDEDED"/>
</svg>
