<svg width="24" height="24" viewBox="0 0 24 24" fill="none" xmlns="http://www.w3.org/2000/svg">
<path d="M16.875 15C16.875 16.0859 16.5607 17.1485 15.97 18.0596C15.3794 18.9708 14.5376 19.6915 13.5464 20.1348C12.5551 20.5781 11.4567 20.725 10.3838 20.5578C9.31094 20.3906 8.30937 19.9164 7.50002 19.1925C7.38603 19.0951 7.29265 18.976 7.22537 18.842C7.15809 18.708 7.11826 18.5619 7.10823 18.4124C7.0982 18.2628 7.11817 18.1127 7.16697 17.9709C7.21576 17.8292 7.29239 17.6986 7.39237 17.5869C7.49234 17.4752 7.61363 17.3846 7.74912 17.3204C7.8846 17.2562 8.03155 17.2198 8.18132 17.2132C8.3311 17.2066 8.48068 17.23 8.62127 17.2821C8.76186 17.3341 8.89064 17.4137 9.00002 17.5162C9.40784 17.8808 9.89816 18.1408 10.4287 18.2737C10.9593 18.4067 11.5143 18.4088 12.0458 18.2796C12.5774 18.1505 13.0696 17.8942 13.4801 17.5326C13.8905 17.1711 14.207 16.7152 14.4021 16.2042C14.5973 15.6932 14.6653 15.1424 14.6004 14.5992C14.5354 14.0561 14.3394 13.5369 14.0293 13.0863C13.7191 12.6358 13.3041 12.2673 12.82 12.0128C12.3358 11.7582 11.797 11.6251 11.25 11.625C11.0411 11.625 10.8363 11.5668 10.6586 11.457C10.4809 11.3471 10.3372 11.19 10.2438 11.0031C10.1504 10.8162 10.1108 10.6071 10.1296 10.399C10.1483 10.1909 10.2247 9.99214 10.35 9.825L13.5 5.625H8.25002C7.95165 5.625 7.66551 5.50647 7.45453 5.2955C7.24355 5.08452 7.12502 4.79837 7.12502 4.5C7.12502 4.20163 7.24355 3.91548 7.45453 3.7045C7.66551 3.49353 7.95165 3.375 8.25002 3.375H15.75C15.9589 3.375 16.1637 3.43318 16.3415 3.54302C16.5192 3.65286 16.6628 3.81002 16.7563 3.99688C16.8497 4.18375 16.8892 4.39295 16.8705 4.60103C16.8517 4.80911 16.7754 5.00786 16.65 5.175L13.23 9.735C14.3001 10.139 15.222 10.859 15.873 11.7995C16.5241 12.7399 16.8736 13.8562 16.875 15Z" fill="white"/>
</svg>
