<svg width="24" height="24" viewBox="0 0 24 24" fill="none" xmlns="http://www.w3.org/2000/svg">
<path d="M16.875 15.75C16.875 16.0484 16.7565 16.3345 16.5455 16.5455C16.3345 16.7565 16.0484 16.875 15.75 16.875H15V19.5C15 19.7984 14.8815 20.0845 14.6705 20.2955C14.4596 20.5065 14.1734 20.625 13.875 20.625C13.5766 20.625 13.2905 20.5065 13.0795 20.2955C12.8685 20.0845 12.75 19.7984 12.75 19.5V16.875H8.25C8.0354 16.8753 7.82579 16.8098 7.64766 16.6864C7.46952 16.5631 7.33112 16.3873 7.25129 16.1817C7.17145 15.9761 7.15394 15.7502 7.20097 15.5337C7.248 15.3172 7.35752 15.1199 7.51594 14.9672L13.0159 9.46719C13.227 9.25638 13.5131 9.13803 13.8113 9.13803C14.1095 9.13803 14.3956 9.25638 14.6066 9.46719C14.8174 9.67825 14.9357 9.96438 14.9357 10.2628C14.9357 10.5612 14.8174 10.8473 14.6066 11.0584L10.8422 14.625H12.75V12C12.75 11.7016 12.8685 11.4155 13.0795 11.2045C13.2905 10.9935 13.5766 10.875 13.875 10.875C14.1734 10.875 14.4596 10.9935 14.6705 11.2045C14.8815 11.4155 15 11.7016 15 12V14.625H15.75C16.0484 14.625 16.3345 14.7435 16.5455 14.9545C16.7565 15.1655 16.875 15.4516 16.875 15.75Z" fill="#101010"/>
</svg>
