<svg width="24" height="24" viewBox="0 0 24 24" fill="none" xmlns="http://www.w3.org/2000/svg">
<path d="M17.6251 14.25C17.6251 14.5484 17.5065 14.8345 17.2956 15.0455C17.0846 15.2565 16.7984 15.375 16.5001 15.375H15.3751V19.5C15.3751 19.7984 15.2565 20.0845 15.0456 20.2955C14.8346 20.5065 14.5484 20.625 14.2501 20.625C13.9517 20.625 13.6655 20.5065 13.4546 20.2955C13.2436 20.0845 13.1251 19.7984 13.1251 19.5V15.375H6.75006C6.57019 15.3748 6.39299 15.3315 6.23332 15.2487C6.07366 15.1658 5.93618 15.0459 5.83241 14.899C5.72865 14.7521 5.66163 14.5824 5.63697 14.4043C5.61231 14.2261 5.63073 14.0446 5.69068 13.875L9.44068 3.37501C9.48474 3.2294 9.55787 3.09423 9.65566 2.97769C9.75344 2.86115 9.87385 2.76565 10.0096 2.69697C10.1453 2.62829 10.2936 2.58786 10.4454 2.57812C10.5972 2.56837 10.7495 2.58952 10.8929 2.64029C11.0363 2.69105 11.1679 2.77038 11.2798 2.87347C11.3917 2.97655 11.4815 3.10126 11.5438 3.24005C11.6061 3.37884 11.6396 3.52882 11.6423 3.68093C11.645 3.83304 11.6168 3.98411 11.5594 4.12501L8.34381 13.125H13.1251V9.00001C13.1251 8.70164 13.2436 8.41549 13.4546 8.20452C13.6655 7.99354 13.9517 7.87501 14.2501 7.87501C14.5484 7.87501 14.8346 7.99354 15.0456 8.20452C15.2565 8.41549 15.3751 8.70164 15.3751 9.00001V13.125H16.5001C16.7984 13.125 17.0846 13.2435 17.2956 13.4545C17.5065 13.6655 17.6251 13.9516 17.6251 14.25Z" fill="white"/>
</svg>
