<svg width="24" height="24" viewBox="0 0 24 24" fill="none" xmlns="http://www.w3.org/2000/svg">
<path d="M13.875 4.50003V19.5C13.875 19.7984 13.7565 20.0845 13.5455 20.2955C13.3345 20.5065 13.0484 20.625 12.75 20.625C12.4516 20.625 12.1655 20.5065 11.9545 20.2955C11.7435 20.0845 11.625 19.7984 11.625 19.5V6.48659L9.57843 7.71472C9.32286 7.86175 9.01978 7.90257 8.73442 7.8284C8.44905 7.75422 8.20421 7.57098 8.05258 7.31811C7.90096 7.06524 7.85467 6.76294 7.92367 6.47628C7.99268 6.18962 8.17147 5.94151 8.42156 5.78534L12.1716 3.53534C12.3423 3.43301 12.5371 3.37779 12.7361 3.37533C12.9351 3.37287 13.1312 3.42325 13.3044 3.52132C13.4776 3.6194 13.6216 3.76167 13.7219 3.93361C13.8221 4.10555 13.875 4.301 13.875 4.50003Z" fill="#101010"/>
</svg>
